# xmcd
#
# Track frame offsets: 
#        150
#        13610
#        28462
#        56335
#        69727
#        86200
#        106107
#        120450
#        134165
#        153265
#        165090
#        181762
#        198237
#        212300
#        221882
#        237935
#        256362
#        271602
#        292065
#        307220
#
# Disc length: 4314 seconds
#
# Revision: 4
# Processed by: cddbd v1.5.1PL0 Copyright (c) Steve Scherf et al.
# Submitted via: ExactAudioCopy v0.95a5
#
DISCID=2010d814
DTITLE=Tony Bennett - 40 Years: The Artistry Of Tony Bennett [CD3]
DYEAR=1991
DGENRE=Pop Vocal
TTITLE0=Nobody Else But Me
TTITLE1=It Had To Be You
TTITLE2=I've Got Just About Everything
TTITLE3=Who Can I Turn To
TTITLE4=Waltz For Debbie
TTITLE5=I Walk A Little Faster
TTITLE6=Wrap Your Troubles In Your Dreams (And Dream Your Troubles Awa
TTITLE6=y)
TTITLE7=If I Ruled The World
TTITLE8=Fly Me To The Moon (In Other Words)
TTITLE9=Love Scene
TTITLE10=Sweet Lorraine
TTITLE11=The Shadow Of Your Smile
TTITLE12=I'll Only Miss Her When I Think Of Her
TTITLE13=Baby, Dream Your Dream
TTITLE14=Smile
TTITLE15=Song From The Oscar (Maybe September)
TTITLE16=Emily
TTITLE17=The Very Thought Of You
TTITLE18=A Time For Love
TTITLE19=Country Girl
EXTD=YEAR: 1991
EXTT0=
EXTT1=
EXTT2=
EXTT3=
EXTT4=
EXTT5=
EXTT6=
EXTT7=
EXTT8=
EXTT9=
EXTT10=
EXTT11=
EXTT12=
EXTT13=
EXTT14=
EXTT15=
EXTT16=
EXTT17=
EXTT18=
EXTT19=
PLAYORDER=
